<?xml version="1.0" encoding="utf-8"?>
<!-- Generator: Adobe Illustrator 21.0.0, SVG Export Plug-In . SVG Version: 6.00 Build 0)  -->
<svg version="1.1" id="Layer_1" xmlns="http://www.w3.org/2000/svg" xmlns:xlink="http://www.w3.org/1999/xlink" x="0px" y="0px"
	 viewBox="0 0 100 100" style="enable-background:new 0 0 100 100;fill: white;" xml:space="preserve">
<g transform="translate(1043.661 966.501)">
	<path d="M-964.2-898.1c-0.4,0.1-0.8-0.1-1.1-0.4l-17.6-16.5c-0.6-0.5-0.8-1.4-0.3-2c0.1-0.1,0.2-0.2,0.3-0.3c0.5-0.6,1.4-0.8,2-0.3
		c0.1,0.1,0.2,0.2,0.3,0.3l17.6,16.5c0.6,0.5,0.8,1.4,0.3,2c-0.1,0.1-0.2,0.2-0.3,0.3C-963.3-898.2-963.7-898.1-964.2-898.1
		L-964.2-898.1z"/>
	<path d="M-1023.2-898.1c-0.4,0.1-0.8-0.1-1.1-0.4c-0.8-0.8-0.4-1.5,0-2.3l17.6-16.5c0.8-0.8,1.5-0.4,2.3,0c0.8,0.8,0.4,1.5,0,2.3
		l-17.6,16.5C-1022.3-898.2-1022.7-898.1-1023.2-898.1L-1023.2-898.1z"/>
	<path d="M-953.8-882.8h-79.7c-4.2,0-7.7-3.4-7.7-7.7v-52.1c0-4.2,3.4-7.6,7.7-7.7h79.7c4.2,0,7.6,3.4,7.7,7.7v52.1
		C-946.2-886.2-949.6-882.8-953.8-882.8z M-1033.5-947.2c-2.4-0.1-4.5,1.8-4.6,4.2c0,0.1,0,0.2,0,0.3v52.1c-0.1,2.4,1.8,4.5,4.2,4.6
		c0.1,0,0.2,0,0.3,0h79.7c2.4,0.1,4.5-1.8,4.6-4.2c0-0.1,0-0.2,0-0.3v-52.1c0.1-2.4-1.8-4.5-4.2-4.6c-0.1,0-0.2,0-0.3,0
		C-953.8-947.2-1033.5-947.2-1033.5-947.2z"/>
	<path d="M-993.7-908.8c-2.1,0-4.1-0.7-5.7-1.9l-39.5-34.5c-0.8-0.4-0.8-1.5,0-2.3c0.4-0.8,1.5-0.8,2.3,0l39.5,34.5
		c2.2,1.5,5.1,1.5,7.3,0l39.5-34.1c0.7-0.4,1.6-0.4,2.3,0c0.4,0.7,0.4,1.6,0,2.3l-39.5,34.1C-989.3-909.4-991.5-908.8-993.7-908.8z"
		/>
</g>
</svg>
