<?xml version="1.0" encoding="utf-8"?>
<!-- Generator: Adobe Illustrator 21.0.0, SVG Export Plug-In . SVG Version: 6.00 Build 0)  -->
<svg version="1.1" id="Layer_1" xmlns="http://www.w3.org/2000/svg" xmlns:xlink="http://www.w3.org/1999/xlink" x="0px" y="0px"
	 viewBox="0 0 100 100" style="enable-background:new 0 0 100 100; fill: #008269 ;" xml:space="preserve">
<path d="M40.3,65.1c-0.8,0.8-0.8,2.1,0,2.9c0.4,0.4,0.9,0.6,1.5,0.6c0.5,0,1.1-0.2,1.5-0.6l16.5-16.5c0.2-0.2,0.3-0.4,0.4-0.7
	c0-0.1,0.1-0.3,0.1-0.4c0-0.1,0.1-0.2,0.1-0.3c0-0.2,0-0.3-0.1-0.4c0-0.1,0-0.2-0.1-0.3c-0.1-0.3-0.3-0.5-0.5-0.7L43.2,32
	c-0.8-0.8-2.1-0.8-2.9,0.1c-0.8,0.8-0.8,2,0,2.8l13,13H4.6c-1.1,0-2.1,0.9-2.1,2.1c0,1.1,0.9,2.1,2.1,2.1c0,0,0,0,0,0h48.7
	L40.3,65.1z M87.2,2.5H41.8c-5.7,0-10.3,4.6-10.3,10.3v20.7c0,1.1,0.9,2.1,2.1,2.1s2.1-0.9,2.1-2.1c0,0,0,0,0,0V12.8
	c0-3.4,2.8-6.2,6.2-6.2h45.4c3.4,0,6.2,2.8,6.2,6.2v74.3c0,3.4-2.8,6.2-6.2,6.2H41.8c-3.4,0-6.2-2.8-6.2-6.2V66.5
	c0-1.1-0.9-2.1-2.1-2.1c-1.1,0-2.1,0.9-2.1,2.1c0,0,0,0,0,0v20.7c0,5.7,4.6,10.3,10.3,10.3l0,0h45.4c5.7,0,10.3-4.6,10.3-10.3
	c0,0,0,0,0,0V12.8C97.5,7.1,92.9,2.5,87.2,2.5C87.2,2.5,87.2,2.5,87.2,2.5z"/>
</svg>
