<?xml version="1.0" encoding="utf-8"?>
<!-- Generator: Adobe Illustrator 21.0.0, SVG Export Plug-In . SVG Version: 6.00 Build 0)  -->
<svg version="1.1" id="Layer_1" xmlns="http://www.w3.org/2000/svg" xmlns:xlink="http://www.w3.org/1999/xlink" x="0px" y="0px"
	 viewBox="0 0 100 100" style="enable-background:new 0 0 100 100; fill: white;" xml:space="preserve">
<g transform="translate(933.609 978.81)">
	<path d="M-916.6-889.3c-0.3,0-0.5,0-0.7-0.2c-0.7-0.3-1.2-1-1.2-1.8v-13.9h-5.9c-3.3,0-5.9-2.7-5.9-5.9v-51.4
		c0-3.3,2.7-5.9,5.9-5.9h83.1c3.3,0,5.9,2.7,5.9,5.9v51.4c0,3.3-2.7,5.9-5.9,5.9h-58.6l-15.2,15.2
		C-915.5-889.5-916.1-889.3-916.6-889.3L-916.6-889.3z M-924.5-964.5c-1.1,0-2,0.9-2,2c0,0,0,0,0,0v51.4c0,1.1,0.9,2,2,2
		c0,0,0,0,0,0h7.9c1.1,0,2,0.9,2,2c0,0,0,0,0,0v11.1l12.4-12.4c0.4-0.4,0.9-0.6,1.4-0.6h59.3c1.1,0,2-0.9,2-2l0,0v-51.5
		c0-1.1-0.9-2-2-2c0,0,0,0,0,0L-924.5-964.5z"/>
	<path d="M-896.8-932.9c-2.2,0-4-1.8-4-4c0-2.2,1.8-4,4-4c2.2,0,4,1.8,4,4l0,0C-892.8-934.7-894.6-932.9-896.8-932.9z"/>
	<path d="M-865.1-932.9c-2.2,0-4-1.8-4-4c0-2.2,1.8-4,4-4c2.2,0,4,1.8,4,4l0,0C-861.2-934.7-862.9-932.9-865.1-932.9z"/>
	<path d="M-881-932.9c-2.2,0-4-1.8-4-4c0-2.2,1.8-4,4-4c2.2,0,4,1.8,4,4l0,0C-877-934.7-878.8-932.9-881-932.9z"/>
</g>
</svg>
