<?xml version="1.0" encoding="utf-8"?>
<!-- Generator: Adobe Illustrator 21.0.0, SVG Export Plug-In . SVG Version: 6.00 Build 0)  -->
<svg version="1.1" id="Layer_1" xmlns="http://www.w3.org/2000/svg" xmlns:xlink="http://www.w3.org/1999/xlink" x="0px" y="0px"
	 viewBox="0 0 100 100" style="enable-background:new 0 0 100 100;fill: white;	" xml:space="preserve">
<g transform="translate(847.049 810.298)">
	<path d="M-797-807.8c-21,0-38.1,17.1-38.1,38.1c0,2.4,0.2,4.8,0.7,7.1c0,0.1,0.1,0.5,0.3,1.3c0.6,2.6,1.5,5.1,2.6,7.5
		c4.1,9.7,13.1,24.5,32.9,40.4c1,0.8,2.4,0.8,3.4,0c19.8-15.9,28.8-30.7,32.9-40.4c1.1-2.4,2-4.9,2.5-7.5c0.1-0.7,0.3-1.1,0.3-1.3
		c3.9-20.7-9.6-40.6-30.3-44.6C-792.3-807.6-794.7-807.8-797-807.8z M-764.9-763.5c0,0,0,0.1,0,0.1c0,0.1-0.1,0.4-0.2,0.8v0
		c-0.5,2.2-1.2,4.4-2.2,6.5c0,0,0,0,0,0.1c-3.7,8.8-11.9,22.3-29.7,37c-17.8-14.7-25.9-28.1-29.7-37c0,0,0,0,0-0.1
		c-1-2.1-1.7-4.3-2.2-6.5v0c-0.1-0.3-0.1-0.6-0.2-0.8c0,0,0-0.1,0-0.1c-3.5-17.7,8.1-34.9,25.8-38.4c17.7-3.5,34.9,8.1,38.4,25.8
		c0.4,2.1,0.6,4.2,0.6,6.4C-764.3-767.7-764.5-765.6-764.9-763.5L-764.9-763.5z"/>
	<path d="M-797-793.5c-13.3,0-24.2,10.8-24.2,24.2c0,13.3,10.8,24.2,24.2,24.2c13.3,0,24.2-10.8,24.2-24.2l0,0
		C-772.9-782.7-783.7-793.5-797-793.5z M-797-750.5c-10.4,0-18.8-8.4-18.8-18.8c0-10.4,8.4-18.8,18.8-18.8
		c10.4,0,18.8,8.4,18.8,18.8C-778.2-758.9-786.7-750.5-797-750.5z"/>
</g>
</svg>
