<?xml version="1.0" encoding="utf-8"?>
<!-- Generator: Adobe Illustrator 21.0.0, SVG Export Plug-In . SVG Version: 6.00 Build 0)  -->
<svg version="1.1" id="Layer_1" xmlns="http://www.w3.org/2000/svg" xmlns:xlink="http://www.w3.org/1999/xlink" x="0px" y="0px"
	 viewBox="0 0 100 100" style="enable-background:new 0 0 100 100;fill: white;" xml:space="preserve">
<g transform="translate(960.842 896.81)">
	<path d="M-879.2-894.3h-57c-3.8,0-7.1,2.7-7.8,6.5c-3.7,0.7-6.5,4-6.5,7.8v72.8c0,4.4,3.5,7.9,7.9,7.9c0,0,0,0,0,0h57
		c3.8,0,7.1-2.7,7.8-6.5c3.8-0.7,6.5-4,6.5-7.8v-72.8C-871.3-890.8-874.8-894.3-879.2-894.3C-879.2-894.3-879.2-894.3-879.2-894.3z
		 M-880.8-807.2c0,2.6-2.1,4.7-4.8,4.8h-57c-2.6,0-4.7-2.1-4.8-4.8v-72.8c0-2.6,2.1-4.7,4.8-4.8h47.5v12.7c0,0.9,0.7,1.6,1.6,1.6
		h12.7L-880.8-807.2z M-883-873.7h-8.9v-8.8L-883-873.7z M-874.4-813.6c0,2-1.3,3.8-3.2,4.4v-63c0-0.4-0.2-0.8-0.5-1.1l-14.2-14.2
		c-0.3-0.3-0.7-0.5-1.1-0.5h-47.2c0.7-1.9,2.4-3.2,4.5-3.2h57c2.6,0,4.7,2.1,4.7,4.7V-813.6z"/>
	<path d="M-906.1-872.1c0-4.4-3.5-7.9-7.9-7.9s-7.9,3.5-7.9,7.9s3.5,7.9,7.9,7.9l0,0C-909.6-864.2-906.1-867.8-906.1-872.1
		C-906.1-872.1-906.1-872.1-906.1-872.1z M-914-867.4c-2.6,0-4.8-2.1-4.8-4.8s2.1-4.8,4.8-4.8c2.6,0,4.8,2.1,4.8,4.8
		C-909.3-869.5-911.4-867.4-914-867.4L-914-867.4z"/>
	<rect x="-942.5" y="-859.5" width="15.8" height="3.2"/>
	<rect x="-921.9" y="-859.5" width="4.8" height="3.2"/>
	<rect x="-910.8" y="-859.5" width="15.8" height="3.2"/>
	<rect x="-890.3" y="-859.5" width="4.8" height="3.2"/>
	<rect x="-942.5" y="-853.1" width="15.8" height="3.2"/>
	<rect x="-921.9" y="-853.1" width="4.8" height="3.2"/>
	<rect x="-910.8" y="-853.1" width="15.8" height="3.2"/>
	<rect x="-890.3" y="-853.1" width="4.8" height="3.2"/>
	<rect x="-942.5" y="-846.8" width="15.8" height="3.2"/>
	<rect x="-921.9" y="-846.8" width="4.8" height="3.2"/>
	<rect x="-910.8" y="-846.8" width="15.8" height="3.2"/>
	<rect x="-890.3" y="-846.8" width="4.8" height="3.2"/>
	<rect x="-942.5" y="-840.5" width="15.8" height="3.2"/>
	<rect x="-921.9" y="-840.5" width="4.8" height="3.2"/>
	<rect x="-910.8" y="-840.5" width="15.8" height="3.2"/>
	<rect x="-890.3" y="-840.5" width="4.8" height="3.2"/>
	<rect x="-942.5" y="-831" width="15.8" height="3.2"/>
	<rect x="-921.9" y="-831" width="4.8" height="3.2"/>
	<rect x="-910.8" y="-831" width="15.8" height="3.2"/>
	<rect x="-890.3" y="-831" width="4.8" height="3.2"/>
	<rect x="-942.5" y="-824.6" width="15.8" height="3.2"/>
	<rect x="-921.9" y="-824.6" width="4.8" height="3.2"/>
	<rect x="-910.8" y="-824.6" width="15.8" height="3.2"/>
	<rect x="-890.3" y="-824.6" width="4.8" height="3.2"/>
	<rect x="-942.5" y="-818.3" width="15.8" height="3.2"/>
	<rect x="-921.9" y="-818.3" width="4.8" height="3.2"/>
	<rect x="-910.8" y="-818.3" width="15.8" height="3.2"/>
	<rect x="-890.3" y="-818.3" width="4.8" height="3.2"/>
	<rect x="-942.5" y="-812" width="15.8" height="3.2"/>
	<rect x="-921.9" y="-812" width="4.8" height="3.2"/>
	<rect x="-910.8" y="-812" width="15.8" height="3.2"/>
	<rect x="-890.3" y="-812" width="4.8" height="3.2"/>
</g>
</svg>
