<?xml version="1.0" encoding="utf-8"?>
<!-- Generator: Adobe Illustrator 21.0.0, SVG Export Plug-In . SVG Version: 6.00 Build 0)  -->
<svg version="1.1" id="Layer_1" xmlns="http://www.w3.org/2000/svg" xmlns:xlink="http://www.w3.org/1999/xlink" x="0px" y="0px"
	 viewBox="0 0 100 100" style="enable-background:new 0 0 100 100; fill: #008269 ;" xml:space="preserve">
<g transform="translate(1016.2 877.1)">
	<path d="M-989.3-832.4l7.1-5.4l7.5,8.2c0.2,0.2,0.5,0.3,0.8,0.4c0.3,0,0.5-0.1,0.7-0.2l7.1-5.7v1.3c0,0.7,0.5,1.2,1.2,1.2
		s1.2-0.5,1.2-1.2v-4.5c0-0.6-0.4-1.2-1.1-1.2c0,0-0.1,0-0.1,0h-5.1c-0.7,0-1.2,0.5-1.2,1.2c0,0.7,0.5,1.2,1.2,1.2l0,0h2.1l-6,4.9
		l-7.5-8.2c-0.4-0.5-1.1-0.5-1.6-0.1l-7.8,6.3c-0.5,0.4-0.6,1.1-0.2,1.7C-990.6-832-989.8-831.9-989.3-832.4
		C-989.3-832.3-989.3-832.3-989.3-832.4z"/>
	<circle cx="-977.9" cy="-866.6" r="1.8"/>
	<path d="M-948.4-861.1h-12.2v-1.1c-0.2-3.3-3-5.8-6.3-5.7h-3.3c-0.7-3.9-4.1-6.8-8.1-6.8c-4,0-7.4,2.9-8.1,6.8h-3.2
		c-3.2-0.2-6.1,2.3-6.3,5.5c0,0.1,0,0.1,0,0.2v1.1h-12.1c-0.6,0-1.2,0.4-1.2,1.1c0,0,0,0.1,0,0.1v78.8c0,0.6,0.4,1.2,1.1,1.2
		c0,0,0.1,0,0.1,0h59.1c0.6,0,1.2-0.4,1.2-1.1c0,0,0-0.1,0-0.1v-78.7c0.2-0.4,0.1-1-0.4-1.2C-948.1-861.1-948.2-861.1-948.4-861.1z
		 M-993-862.2c0.2-1.9,1.9-3.4,3.9-3.3h4.3c0.6,0,1.2-0.4,1.2-1.1c0,0,0-0.1,0-0.1c0-3.1,2.5-5.6,5.6-5.6c3.1,0,5.6,2.5,5.6,5.6
		c0,0.6,0.4,1.2,1.1,1.2c0,0,0.1,0,0.1,0h4.3c2-0.2,3.7,1.3,3.9,3.2c0,0,0,0,0,0v5.8H-993L-993-862.2z M-994.2-853.8h32.5
		c0.6,0,1.2-0.4,1.2-1.1c0,0,0-0.1,0-0.1v-3.5h3.4v67h-41.5v-67h3.4v3.5C-995.4-854.4-994.9-853.9-994.2-853.8
		C-994.3-853.8-994.3-853.8-994.2-853.8z M-949.6-782.1h-56.7v-76.4h5.2v68.2c0,0.6,0.4,1.2,1.1,1.2c0,0,0.1,0,0.1,0h44.1
		c0.6,0,1.2-0.4,1.2-1.1c0,0,0-0.1,0-0.1v-68.2h5.1V-782.1z"/>
	<path d="M-992.8-812.4h29.7c0.7,0,1.2-0.5,1.2-1.2s-0.5-1.2-1.2-1.2h-29.7c-0.7,0-1.2,0.5-1.2,1.2S-993.5-812.4-992.8-812.4z"/>
	<path d="M-992.8-802.5h29.7c0.7,0,1.2-0.5,1.2-1.2s-0.5-1.2-1.2-1.2h-29.7c-0.7,0-1.2,0.5-1.2,1.2S-993.5-802.5-992.8-802.5z"/>
	<path d="M-924.5-854.2h-2.6v-3.5c0-0.6-0.4-1.2-1.1-1.2c0,0-0.1,0-0.1,0h-7.6c-0.6,0-1.2,0.4-1.2,1.1c0,0,0,0.1,0,0.1v25.4
		c0,0.6,0.4,1.1,1,1.2v50.3c0,0.6,0.4,1.2,1.1,1.2c0,0,0.1,0,0.1,0h5.7c0.6,0,1.2-0.4,1.2-1.1c0,0,0-0.1,0-0.1v-50.3
		c0.6-0.1,0.9-0.6,1-1.2v-19.4h1.3v24.7c0,0.7,0.5,1.2,1.2,1.2s1.2-0.5,1.2-1.2l0,0v-26C-923.1-853.7-923.7-854.2-924.5-854.2z
		 M-930.6-786.8h-3.2v-44.3h3.3L-930.6-786.8z M-934.9-856.5h5.2v22.8h-5.2V-856.5z M-933.8-782.1v-2.3h3.3v2.3H-933.8z"/>
</g>
</svg>
