<?xml version="1.0" encoding="utf-8"?>
<!-- Generator: Adobe Illustrator 21.0.0, SVG Export Plug-In . SVG Version: 6.00 Build 0)  -->
<svg version="1.1" id="Layer_1" xmlns="http://www.w3.org/2000/svg" xmlns:xlink="http://www.w3.org/1999/xlink" x="0px" y="0px"
	 viewBox="0 0 100 100" style="enable-background:new 0 0 100 100;" xml:space="preserve">
<g transform="translate(-341 273)">
	<path d="M422-270.4v65.3h-31.6c-0.1,0.1-0.2,0.3-0.3,0.5c0.2,0,0.4,0.1,0.6,0.1h0.8c10.7,0,21.6,0.1,32.4,0.1c1.4,0,1.7,0.2,1.8,1
		c0,0.8-0.5,1-1.8,1c-10.9,0-21.6-0.1-32.5-0.1h-0.9v15.1c0,0.6,0.2,0.8,0.7,1.2c4,2.8,8.2,5.7,12.3,8.6c1,0.7,1,1.4,0.1,2.1h-0.9
		c-0.2-0.1-0.3-0.3-0.6-0.5c-4.1-2.8-8.1-5.6-12-8.3c-0.3-0.2-0.6-0.5-1.2-0.1c-4.3,3-8.6,6-12.8,8.9h-0.7c-1-0.9-1-1.5,0.1-2.3
		l12.1-8.3c0.4-0.3,0.7-0.7,0.7-1.3v-15h-28.7c-0.5,0-1.1,0-1.6,0.1c-0.7,0.2-1.5-0.1-1.7-0.8v-0.3c0.3-0.6,0.9-1,1.6-0.9
		c9.7,0,19.5-0.1,29.2-0.1h0.8c0.1,0,0.2-0.2,0.3-0.3c-0.1-0.1-0.2-0.2-0.3-0.2h-28v-65.4C380.7-270.4,401.3-270.4,422-270.4z
		 M419.8-268.2h-57.7v60.9h57.7V-268.2z"/>
	<path d="M392.4-239.3c-1.2,3.6-2.3,7.2-3.4,10.6c-0.2,0.6-0.3,1.2-0.6,1.7c-0.5,1.4-1.2,1.6-2.3,0.7c-1.6-1.3-3.4-2.4-5-3.7
		c-0.2-0.2-0.5-0.4-0.8-0.6c-1.6,2.2-3.2,4.4-4.9,6.7c-2,2.7-3.8,5.4-5.8,8.2c-0.6,0.8-1,0.9-1.6,0.6c-0.6-0.3-0.7-1-0.2-1.8
		c2.1-3,4.3-6,6.4-8.9c1.5-2.1,3.1-4.2,4.7-6.4c0.8-1,1.3-1.2,2.3-0.3c1.7,1.3,3.6,2.5,5.4,3.9c0.1-0.3,0.2-0.5,0.3-0.8
		c1.2-3.7,2.4-7.4,3.6-11.1c0.5-1.3,0.8-1.5,2.1-1.2c2.5,0.8,5.2,1.5,7.7,2.3c0.6,0.2,0.9,0.1,1.2-0.5c3.2-5.4,6.4-10.9,9.6-16.2
		c0.1-0.3,0.3-0.5,0.5-0.7c0.3-0.5,0.9-0.6,1.4-0.3c0.5,0.2,0.7,0.8,0.5,1.3c0,0,0,0,0,0c-0.1,0.3-0.3,0.6-0.5,0.8
		c-3.5,5.8-6.9,11.4-10.3,17.2c-0.3,0.7-1.1,1.1-1.8,0.8c0,0,0,0,0,0C398.1-237.7,395.3-238.5,392.4-239.3z"/>
</g>
</svg>
