<?xml version="1.0" encoding="utf-8"?>
<!-- Generator: Adobe Illustrator 21.0.0, SVG Export Plug-In . SVG Version: 6.00 Build 0)  -->
<svg version="1.1" id="Layer_1" xmlns="http://www.w3.org/2000/svg" xmlns:xlink="http://www.w3.org/1999/xlink" x="0px" y="0px"
	 viewBox="0 0 100 100" style="enable-background:new 0 0 100 100;" xml:space="preserve">
<g transform="translate(-345 152)">
	<path d="M424.6-147.2h-5.1v-1.1c0-0.6-0.5-1.1-1.1-1.1h-46.4c-0.6,0-1.1,0.5-1.1,1.1v1.1h-5.2c-3.6,0-6.5,2.9-6.5,6.4c0,0,0,0,0,0
		V-61c0,3.6,2.9,6.5,6.4,6.5c0,0,0,0,0,0h58.9c3.6,0,6.5-2.9,6.4-6.5c0,0,0,0,0,0v-79.8c0.1-3.5-2.6-6.4-6.1-6.5
		C424.7-147.2,424.6-147.2,424.6-147.2z M373-147.2h44v1.1c0,3.1-2.4,5.6-5.4,5.8h-32.8c-3.2-0.1-5.7-2.6-5.8-5.8L373-147.2z
		 M428.6-61c0,2.3-1.9,4.2-4.2,4.2c0,0,0,0,0,0h-58.9c-2.3,0-4.2-1.9-4.2-4.2c0,0,0,0,0,0v-79.8c0-2.3,1.9-4.2,4.2-4.2c0,0,0,0,0,0
		h5.2c0.7,3.9,4.1,6.8,8,6.9h32.8c3.9-0.1,7.1-3,7.6-6.9h5.2c2.3,0,4.2,1.9,4.2,4.2c0,0,0,0,0,0C428.6-140.8,428.6-61,428.6-61z"/>
	<path d="M408.9-88.1h-27.7c-0.6,0-1.1,0.5-1.1,1.1v3.5h-10.2c-2.5-0.3-4.7,1.5-5,4c0,0.1,0,0.2,0,0.3v7.6c0,2.9,2.1,5.3,5,5.5h4.2
		l-1.1,1.1c-0.5,0.4-0.5,1.1-0.1,1.6c0.4,0.5,1.1,0.5,1.6,0.1l0.1-0.1l3.1-3c0.4-0.4,0.5-1.1,0-1.5c0,0,0,0,0,0l-3.2-3.2
		c-0.5-0.3-1.2-0.1-1.6,0.4c0,0,0,0,0,0c-0.2,0.3-0.2,0.8,0,1.1l1.1,1.1h-4.1c-1.5,0-2.6-1.7-2.6-3.2v-7.6c0-1.9,2-2,2.6-2h10.2v2.3
		c0,0.6,0.5,1.1,1.1,1.1H409c0.6,0,1.1-0.5,1.1-1.1v-8.2C410.1-87.7,409.6-88.2,408.9-88.1z"/>
	<path d="M381.2-73.1H409c0.6,0,1.1,0.5,1.1,1.1v8.2c0,0.6-0.5,1.1-1.1,1.1h-27.9c-0.6,0-1.1-0.5-1.1-1.1v-8.2c0-0.6,0.4-1.1,1-1.1
		C381.1-73.1,381.1-73.1,381.2-73.1z"/>
	<path d="M420.3-129.9h-10.2v-2.3c0-0.6-0.5-1.1-1.1-1.1h-27.7c-0.6,0-1.1,0.5-1.1,1.1v8.2c0,0.6,0.5,1.1,1.1,1.1H409
		c0.6,0,1.1-0.5,1.1-1.1v-3.5h10.2c0.6,0,2.6,0.1,2.6,2v7.6c0,1.5-1.1,3.2-2.6,3.2h-4.1l1.1-1.1c0.4-0.4,0.4-1.1-0.1-1.5
		c0,0,0,0-0.1,0c-0.4-0.3-1-0.3-1.5,0l-3.2,3.2c-0.4,0.4-0.5,1.1,0,1.5c0,0,0,0,0,0l3.1,3c0.5,0.3,1.2,0.1,1.6-0.4c0,0,0,0,0,0
		c0.2-0.3,0.2-0.8,0-1.1l-1.1-1.1h4.2c2.8-0.3,5-2.7,5-5.5v-7.6c-0.1-2.6-2.3-4.6-4.9-4.4C420.4-129.9,420.3-129.9,420.3-129.9z"/>
	<path d="M420.3-98.5h-10.2v-3.5c0-0.6-0.5-1.1-1.1-1.1h-27.7c-0.6,0-1.1,0.5-1.1,1.1v8.2c0,0.6,0.5,1.1,1.1,1.1H409
		c0.6,0,1.1-0.5,1.1-1.1v-2.3h10.2c0.6,0,2.6,0.1,2.6,2v7.6c0,1.5-1.1,3.2-2.6,3.2h-4.1l1.1-1.1c0.4-0.4,0.4-1.1-0.1-1.5
		c0,0,0,0-0.1,0c-0.4-0.3-1-0.3-1.5,0l-3.2,3.2c-0.4,0.4-0.5,1.1,0,1.5c0,0,0,0,0,0l3.1,3.1c0.5,0.3,1.2,0.1,1.6-0.4c0,0,0,0,0,0
		c0.2-0.3,0.2-0.8,0-1.1l-1.1-1.1h4.2c2.8-0.3,5-2.7,5-5.5v-7.6c-0.1-2.5-2.2-4.5-4.8-4.4C420.5-98.6,420.4-98.6,420.3-98.5z"/>
	<path d="M369.9-97.4h4.2l-1.1,1.1c-0.5,0.4-0.5,1.1-0.1,1.6s1.1,0.5,1.6,0.1l0.1-0.1l3.1-3.1c0.4-0.4,0.5-1.1,0-1.5c0,0,0,0,0,0
		l-3.2-3.2c-0.5-0.3-1.2-0.1-1.6,0.4c0,0,0,0,0,0c-0.2,0.3-0.2,0.8,0,1.1l1.1,1.1h-4.1c-1.5,0-2.6-1.7-2.6-3.2v-7.6c0-1.9,2-2,2.6-2
		h10.2v3.5c0,0.6,0.5,1.1,1.1,1.1H409c0.6,0,1.1-0.5,1.1-1.1v-8.2c0-0.6-0.5-1.1-1.1-1.1h-27.8c-0.6,0-1.1,0.5-1.1,1.1v2.3h-10.2
		c-2.5-0.3-4.7,1.5-5,4c0,0.1,0,0.2,0,0.3v7.6C364.8-100.2,367-97.7,369.9-97.4z"/>
</g>
</svg>
