<?xml version="1.0" encoding="utf-8"?>
<!-- Generator: Adobe Illustrator 21.0.0, SVG Export Plug-In . SVG Version: 6.00 Build 0)  -->
<svg version="1.1" id="Layer_1" xmlns="http://www.w3.org/2000/svg" xmlns:xlink="http://www.w3.org/1999/xlink" x="0px" y="0px"
	 viewBox="0 0 100 100" style="enable-background:new 0 0 100 100;" xml:space="preserve">
<style type="text/css">
	.st0{fill:#000202;}
</style>
<g transform="translate(915.718 901)">
	<g transform="translate(0.73 0)">
		<g transform="translate(0 0)">
			<path class="st0" d="M-877.4-803.9v-51.2l-2.3,3.6l-0.6,0.8c-1.8,2.1-4.8,2.8-7.4,1.6c-2.8-1.3-3.9-4.7-2.6-7.4
				c0-0.1,0.1-0.1,0.1-0.2l9.7-16.3c1.2-2,3.4-3.3,5.8-3.3h17.4c2.4,0,4.6,1.3,5.8,3.3l9.7,16.3c1.5,2.7,0.5,6.1-2.2,7.5
				c-0.1,0-0.1,0.1-0.2,0.1c-2.5,1.2-5.5,0.5-7.4-1.6l-0.6-0.8l-2.3-3.6v51.2L-877.4-803.9z M-867.8-807.1v-38.7h3.8v38.7h6.2v-59.3
				l8.5,13.3l0,0c0.7,1.2,2.2,1.8,3.5,1.2c1.2-0.5,1.7-1.9,1.2-3.1c0-0.1-0.1-0.2-0.1-0.3l-9.5-15.9c-0.6-1.2-1.7-1.9-3-2h-17.3
				c-1.6,0.3-3,1.4-3.6,3l-8.9,15c-0.6,1.2-0.2,2.7,1,3.4c1.3,0.6,2.8,0.1,3.5-1.2l0,0l8.5-13.3v16.2l0,0v43H-867.8z M-876.1-888.6
				c0.2-5.6,4.8-10,10.4-9.8c5.6-0.1,10.2,4.3,10.4,9.8c-0.2,5.6-4.8,10-10.4,9.8C-871.3-878.7-875.9-883.1-876.1-888.6z
				 M-858.7-888.6c-0.1-3.8-3.2-6.8-7-6.7c0,0,0,0,0,0c-3.8-0.1-6.9,2.9-7,6.6c0,0,0,0,0,0c0.1,3.8,3.2,6.8,7,6.7c0,0,0,0,0,0
				C-861.9-881.9-858.8-884.9-858.7-888.6z"/>
		</g>
	</g>
	<g transform="translate(0 35.502)">
		<g transform="translate(0 0)">
			<path class="st0" d="M-890.3-839.1c-0.4,0-0.8-0.3-0.8-0.7c0,0,0,0,0,0l0.1-40.5c0.2-2.5,2.2-4.4,4.7-4.3h1
				c1.2,0,2.4,0.5,3.2,1.4c0.9,0.8,1.4,2,1.3,3.2v2.2c0,0.4-0.3,0.6-0.8,0.7c-0.3,0.1-0.7,0.1-1,0h-0.2c-0.1,0-0.1,0-0.2-0.1
				l-0.1-0.1l-0.1-0.1c-0.1-0.1-0.1-0.3-0.1-0.4v-2.2c0-0.8-0.3-1.5-0.9-2.1c-0.5-0.4-1-0.7-1.7-0.8c-1.4,0.2-2.5,1.4-2.6,2.9v40.5
				c0,0.2-0.1,0.4-0.2,0.5c-0.2,0.1-0.4,0.2-0.6,0.2"/>
		</g>
	</g>
</g>
</svg>
