<?xml version="1.0" encoding="utf-8"?>
<!-- Generator: Adobe Illustrator 21.0.0, SVG Export Plug-In . SVG Version: 6.00 Build 0)  -->
<svg version="1.1" id="Layer_1" xmlns="http://www.w3.org/2000/svg" xmlns:xlink="http://www.w3.org/1999/xlink" x="0px" y="0px"
	 viewBox="0 0 100 100" style="enable-background:new 0 0 100 100;" xml:space="preserve">
<style type="text/css">
	.st0{enable-background:new    ;}
</style>
<path class="st0" d="M32.7,54.3c-10.1,0-30.2,5-30.2,15.1v10.8H63V69.4C63,59.4,42.8,54.3,32.7,54.3 M67.3,54.3
	c-1.4,0-2.8,0.1-4.2,0.2c5,3.6,8.5,8.5,8.5,14.9v10.8h25.9V69.4C97.5,59.4,77.4,54.3,67.3,54.3 M32.7,19.8c-7.2,0-13,5.8-13,12.9
	c0,7.2,5.8,13,12.9,13s13-5.8,13-12.9c0,0,0,0,0,0C45.6,25.6,39.9,19.8,32.7,19.8 M67.3,19.8c-7.2,0-13,5.8-13,12.9
	c0,7.2,5.8,13,12.9,13c7.2,0,13-5.8,13-12.9c0,0,0,0,0,0C80.2,25.6,74.4,19.8,67.3,19.8"/>
</svg>
