<?xml version="1.0" encoding="utf-8"?>
<!-- Generator: Adobe Illustrator 21.0.0, SVG Export Plug-In . SVG Version: 6.00 Build 0)  -->
<svg version="1.1" id="Layer_1" xmlns="http://www.w3.org/2000/svg" xmlns:xlink="http://www.w3.org/1999/xlink" x="0px" y="0px"
	 viewBox="0 0 100 100" style="enable-background:new 0 0 100 100;" xml:space="preserve">
<g transform="translate(1015.561 804.807)">
	<path d="M-922.4-711h-4.1v-59.1c0-2.8-2.2-5-5-5h-9.1c-2.8,0-5,2.2-5,5v59.1h-10.3v-32.3c0-2.8-2.2-5-5-5h-9.1c-2.8,0-5,2.2-5,5
		v32.3h-10.3v-16.7c0-2.8-2.2-5-5-5h-9.1c-2.8,0-5,2.2-5,5v16.7h-4.3c-1,0.1-1.8,1-1.7,2c0.1,0.9,0.8,1.6,1.7,1.7h86.2
		c1-0.1,1.8-1,1.7-2C-920.9-710.2-921.6-710.9-922.4-711L-922.4-711z M-1000.7-711v-16.7c0-0.7,0.6-1.3,1.3-1.3h9.1
		c0.7,0,1.3,0.6,1.3,1.3v16.7L-1000.7-711z M-971.3-711v-32.3c0-0.7,0.6-1.3,1.3-1.3h9.1c0.7,0,1.3,0.6,1.3,1.3v32.3H-971.3z
		 M-941.9-711v-59.1c0-0.7,0.6-1.3,1.3-1.3h9.1c0.7,0,1.3,0.6,1.3,1.3v59.1H-941.9z"/>
	<path d="M-992.8-750.7c0.5,0,1-0.2,1.3-0.5l32-32l6.9,6.9c0.7,0.7,1.9,0.7,2.6,0l19.7-19.7v6.3c0.1,1,1,1.8,2,1.7
		c0.9-0.1,1.6-0.8,1.7-1.7v-10.7c0-0.5-0.2-1-0.5-1.4c-0.4-0.4-0.9-0.6-1.4-0.5h-11.3c-1,0.1-1.8,1-1.7,2c0.1,0.9,0.8,1.6,1.7,1.7
		h6.9l-18.3,18.3l-6.9-6.9c-0.3-0.3-0.8-0.5-1.3-0.5c-0.5,0-1,0.2-1.3,0.5l-33.3,33.3c-0.7,0.7-0.7,1.9,0,2.6
		C-993.7-750.9-993.3-750.7-992.8-750.7z"/>
	<circle cx="-999" cy="-746" r="1.9"/>
</g>
</svg>
