<?xml version="1.0" encoding="utf-8"?>
<!-- Generator: Adobe Illustrator 21.0.0, SVG Export Plug-In . SVG Version: 6.00 Build 0)  -->
<svg version="1.1" id="Layer_1" xmlns="http://www.w3.org/2000/svg" xmlns:xlink="http://www.w3.org/1999/xlink" x="0px" y="0px"
	 viewBox="0 0 100 100" style="enable-background:new 0 0 100 100;" xml:space="preserve">
<g transform="translate(761 638)">
	<path d="M-681.6-540.5h-56.5c-2-0.6-3.2-2.5-2.9-4.6c0.1-1,0-2,0-3c0.1-0.8-0.2-1.1-0.9-1.4c-11.2-4.4-16.7-17.1-12.2-28.3
		c2.2-5.5,6.6-9.9,12.1-12.2c0.8-0.3,0.9-0.6,0.9-1.4v-39.5c-0.3-2,1-4,2.9-4.6h56.5c2,0.6,3.2,2.6,2.8,4.6c0,0.9,0,1.8,0,2.7h6.7
		c3.2,0,5.8,2.5,5.8,5.7c0,0,0,0.1,0,0.1v25.3c0,0.6-0.3,1.2-0.7,1.6c-0.8,0.9-1.7,1.7-2.7,2.5c-0.6,0.5-0.9,1.2-0.9,1.9v38.5
		c0.1,3.1-2.3,5.8-5.5,5.9c-0.1,0-0.3,0-0.4,0h-2.4v1.9c0,0.6,0,1.2-0.2,1.7C-679.3-541.9-680.3-540.9-681.6-540.5z M-737.9-548.2
		v3.3c0,1.3,0,1.3,1.3,1.3h53.4c1.3,0,1.3,0,1.3-1.3v-86.1c0-1.3,0-1.3-1.3-1.3h-53.4c-1.3,0-1.3,0-1.3,1.3v39.8
		c6.4-1.2,12.9,0.5,17.9,4.6c9.3,7.7,10.7,21.4,3,30.7c-0.3,0.3-0.5,0.6-0.8,0.9C-722.9-549.3-730.5-546.8-737.9-548.2z
		 M-721.4-555.9c5.7-5.1,7.8-13.1,5.1-20.3c-3.6-9.7-14.3-14.7-24.1-11.1c-6,2.2-10.5,7.4-11.9,13.7c-1.4,6.5,0.8,13.3,5.9,17.6
		c0.7-3.9,3.7-6.9,7.6-7.6c3.2-0.9,6.5-0.9,9.7,0C-725.2-562.8-722.1-559.8-721.4-555.9z M-678.7-549.9h1.9c2.3,0,3.2-0.9,3.2-3.2
		v-39.3c0-0.8,0.3-1.5,0.9-2.1c0.9-0.9,1.9-1.8,2.8-2.7c0.2-0.3,0.4-0.6,0.4-0.9v-24.2c0.1-1.4-1-2.7-2.4-2.8c-0.1,0-0.2,0-0.3,0
		h-6.6C-678.7-599.9-678.7-574.9-678.7-549.9z M-733.8-551c3.1,0,6.1-0.8,8.8-2.2c0.4-0.2,0.7-0.6,0.7-1c0.1-2.7-1.7-5.1-4.3-5.8
		c-3.3-1.2-7-1.2-10.3-0.1c-2.6,0.7-4.4,3.1-4.4,5.8c-0.1,0.5,0.2,1,0.7,1.1C-739.9-551.8-736.9-551-733.8-551z"/>
	<path d="M-709.9-619.3h-17.9c-0.8-0.1-1.4-0.7-1.4-1.5c0-0.8,0.6-1.4,1.3-1.6h35.9c0.8,0.1,1.5,0.8,1.4,1.6
		c0.1,0.8-0.5,1.5-1.3,1.5c0,0-0.1,0-0.1,0H-709.9z"/>
	<path d="M-703.1-611.4h-10.6c-1.2,0-2-0.7-2-1.6c0-0.9,0.8-1.5,1.9-1.5h21.2c1.2,0,1.9,0.6,1.9,1.5c0,0.9-0.7,1.6-1.9,1.6H-703.1z"
		/>
	<path d="M-741.1-573.8c0-5.5,3.1-8.6,7.9-8.4c2.5,0,4.7,1.5,5.8,3.7c1.8,3.7,1,8.2-2.1,11c-2.5,2.2-6.3,2.2-8.7-0.1
		C-740-569.2-741-571.4-741.1-573.8z M-733.8-579.1c-1.5-0.1-3,0.7-3.6,2.1c-1.1,2.4-0.6,5.2,1.2,7c1.3,1.3,3.4,1.3,4.7,0
		c0,0,0.1-0.1,0.1-0.1c1.6-1.6,2.2-3.9,1.5-6.1C-730.3-577.9-731.9-579.2-733.8-579.1z"/>
</g>
</svg>
