<?xml version="1.0" encoding="utf-8"?>
<!-- Generator: Adobe Illustrator 21.0.0, SVG Export Plug-In . SVG Version: 6.00 Build 0)  -->
<svg version="1.1" id="Layer_1" xmlns="http://www.w3.org/2000/svg" xmlns:xlink="http://www.w3.org/1999/xlink" x="0px" y="0px"
	 viewBox="0 0 100 100" style="enable-background:new 0 0 100 100;" xml:space="preserve">
<g transform="translate(850.352 911.543)">
	<g transform="translate(0 0)">
		<path d="M-847.9-861.5v-45.1c0-1.6,0.2-1.8,1.8-1.8h90.4c1.6,0,1.8,0.2,1.8,1.8v90.2c0,1.7-0.2,1.9-1.8,1.9h-90.2
			c-1.7,0-1.9-0.2-1.9-1.8C-847.9-831.4-847.9-846.5-847.9-861.5z M-799.7-906.2v43.6h43.6v-43.6H-799.7z M-802.1-862.8v-43.6h-43.6
			v43.6H-802.1z M-799.7-816.9h43.6v-43.6h-43.6V-816.9z M-845.6-860.3v43.6h43.6v-43.6L-845.6-860.3z"/>
		<path d="M-777.3-886.1h9.7c0.7,0,1.3,0.2,1.3,1.1c0.1,0.7-0.5,1.2-1.3,1.2h-19.5c-0.5,0-1-0.2-1.3-0.6c-0.6-0.7,0.1-1.6,1.1-1.7
			H-777.3L-777.3-886.1z"/>
		<path d="M-823.3-886.1h8.8c0.6-0.1,1.1,0.3,1.2,0.9c0,0.1,0,0.2,0,0.3c0,0.7-0.5,1.1-1.2,1.1h-8.7v8.5c0,1.1-0.4,1.6-1.1,1.6
			s-1.1-0.5-1.1-1.6v-8.5h-8.5c-1,0-1.5-0.4-1.5-1.1s0.5-1.1,1.5-1.1h8.5v-8.4c0-1.1,0.4-1.6,1.1-1.6s1.1,0.5,1.1,1.6v7.5
			C-823.3-886.8-823.3-886.6-823.3-886.1z"/>
		<path d="M-777.4-844.7h9.8c0.7,0,1.3,0.2,1.3,1.1c0.1,0.7-0.5,1.2-1.3,1.2h-19.5c-0.5,0-1-0.2-1.3-0.6c-0.6-0.7,0.1-1.6,1.1-1.7
			H-777.4z"/>
		<path d="M-777.4-833.6h9.8c1,0,1.6,0.6,1.3,1.3c-0.1,0.6-0.6,0.9-1.2,0.8h-19.8c-0.7,0-1.2-0.4-1.2-1.1c0-0.8,0.5-1.1,1.3-1.1
			L-777.4-833.6z"/>
		<path d="M-824.4-839.6l7.4-7.4l0.5-0.5c0.4-0.4,1.1-0.4,1.6,0c0.4,0.4,0.5,1,0.1,1.5c0,0-0.1,0.1-0.1,0.1
			c-0.2,0.3-0.5,0.6-0.8,0.8l-7,7l0.7,0.7l6.9,6.9c0.5,0.4,0.7,1,0.5,1.6c-0.4,0.8-1.2,0.8-2.1,0.1l-6.9-6.9
			c-0.3-0.3-0.5-0.5-0.8-0.7l-2.5,2.5c-1.7,1.7-3.4,3.4-5.1,5.2c-0.6,0.6-1.1,0.8-1.8,0.2c-0.6-0.5-0.5-1.2,0.2-1.8l7.6-7.6
			l-0.7-0.7l-6.9-6.9c-0.3-0.4-0.5-0.8-0.5-1.3c0.1-0.3,0.4-0.6,0.7-0.7c0.5,0,1,0.1,1.3,0.5l6.9,6.9
			C-824.9-840.2-824.6-840-824.4-839.6z"/>
	</g>
	<g transform="translate(0.576 0)">
		<path d="M-847.5-861.5v-45.1c0-1.6,0.2-1.8,1.8-1.8h90.4c1.6,0,1.8,0.2,1.8,1.8v90.2c0,1.7-0.2,1.9-1.8,1.9h-90.2
			c-1.7,0-1.9-0.2-1.9-1.8C-847.5-831.4-847.5-846.5-847.5-861.5z M-799.3-906.2v43.6h43.6v-43.6H-799.3z M-801.7-862.8v-43.6h-43.6
			v43.6H-801.7z M-799.4-816.9h43.6v-43.6h-43.6L-799.4-816.9z M-845.2-860.3v43.6h43.6v-43.6H-845.2z"/>
		<path d="M-776.9-886.1h9.7c0.7,0,1.3,0.2,1.3,1.1c0.1,0.7-0.5,1.2-1.3,1.2h-19.5c-0.5,0-1-0.2-1.3-0.6c-0.6-0.7,0.1-1.6,1.1-1.7
			H-776.9L-776.9-886.1z"/>
		<path d="M-822.9-886.1h8.8c0.6-0.1,1.1,0.3,1.2,0.9c0,0.1,0,0.2,0,0.3c0,0.7-0.5,1.1-1.2,1.1h-8.7v8.5c0,1.1-0.4,1.6-1.1,1.6
			s-1.1-0.5-1.1-1.6v-8.5h-8.5c-1,0-1.5-0.4-1.5-1.1s0.5-1.1,1.5-1.1h8.5v-8.4c0-1.1,0.4-1.6,1.1-1.6s1.1,0.5,1.1,1.6v7.5
			C-822.9-886.8-822.9-886.6-822.9-886.1z"/>
		<path d="M-777-844.7h9.8c0.7,0,1.3,0.2,1.3,1.1c0.1,0.7-0.5,1.2-1.3,1.2h-19.5c-0.5,0-1-0.2-1.3-0.6c-0.6-0.7,0.1-1.6,1.1-1.7
			H-777z"/>
		<path d="M-777-833.6h9.8c1,0,1.6,0.6,1.3,1.3c-0.1,0.6-0.6,0.9-1.2,0.8H-787c-0.7,0-1.2-0.4-1.2-1.1c0-0.8,0.5-1.1,1.3-1.1
			L-777-833.6z"/>
		<path d="M-824-839.6l7.4-7.4l0.5-0.5c0.4-0.4,1.1-0.4,1.6,0c0.4,0.4,0.5,1,0.1,1.5c0,0-0.1,0.1-0.1,0.1c-0.2,0.3-0.5,0.6-0.8,0.8
			l-7,7l0.7,0.7l6.9,6.9c0.5,0.4,0.7,1,0.5,1.6c-0.4,0.8-1.2,0.8-2.1,0.1l-6.9-6.9c-0.3-0.3-0.5-0.5-0.8-0.7l-2.5,2.5
			c-1.7,1.7-3.4,3.4-5.1,5.2c-0.6,0.6-1.1,0.8-1.8,0.2c-0.6-0.5-0.5-1.2,0.2-1.8l7.6-7.6l-0.7-0.7l-6.9-6.9
			c-0.3-0.4-0.5-0.8-0.5-1.3c0.1-0.3,0.4-0.6,0.7-0.7c0.5,0,1,0.1,1.3,0.5l6.9,6.9C-824.6-840.2-824.3-840-824-839.6z"/>
	</g>
</g>
</svg>
