<?xml version="1.0" encoding="utf-8"?>
<!-- Generator: Adobe Illustrator 21.0.0, SVG Export Plug-In . SVG Version: 6.00 Build 0)  -->
<svg version="1.1" id="Layer_1" xmlns="http://www.w3.org/2000/svg" xmlns:xlink="http://www.w3.org/1999/xlink" x="0px" y="0px"
	 viewBox="0 0 100 100" style="enable-background:new 0 0 100 100;" xml:space="preserve">
<g>
	<path d="M4.6,93.3c-0.3,0-0.5-0.1-0.8-0.2c-1.1-0.4-1.6-1.6-1.2-2.7c0,0,0,0,0-0.1l5.9-14.5c2.5-6.2,7-14.5,16.9-14.9h9.4
		c9.9,0.4,14.4,8.6,16.9,14.9l0.8,1.9L68.4,63c0.9-0.8,2.2-0.7,3,0.1c0.8,0.9,0.7,2.2-0.1,3L53.1,82.9c-0.5,0.5-1.2,0.7-1.9,0.5
		c-0.7-0.2-1.2-0.6-1.5-1.3l-1.9-4.7c-3-7.5-6.6-11.3-11.5-12.1l-1.3,6l1.7,15.1c0.1,0.7-0.2,1.5-0.8,1.9l-3.7,3
		c-0.4,0.3-0.9,0.5-1.3,0.5h-1.3c-0.5,0-1-0.2-1.3-0.5l-3.7-3c-0.6-0.5-0.9-1.2-0.8-1.9l1.7-15.1l-1.3-6c-4.9,0.8-8.5,4.6-11.5,12.1
		L6.5,91.9C6.3,92.8,5.5,93.3,4.6,93.3z M28,85.8l2.2,1.7l2.1-1.7l-1.4-12.4h-1.6L28,85.8z M29.2,69.1h1.9l0.8-3.9h-3.6L29.2,69.1z
		 M95.3,86.5H62.8c-1.2,0-2.1-1-2.1-2.1c0-1.2,1-2.1,2.1-2.1h30.4V20.7H8.5v45c0,1.2-1,2.1-2.1,2.1s-2.1-1-2.1-2.1V18.5
		c0-1.2,1-2.1,2.1-2.1h89c1.2,0,2.1,1,2.1,2.1v65.8C97.5,85.5,96.5,86.5,95.3,86.5C95.4,86.5,95.3,86.5,95.3,86.5L95.3,86.5z
		 M40.7,76.4c-1.2,0-2.1-1-2.1-2.1v-0.3c0-1.2,1-2.1,2.1-2.1c1.2,0,2.1,1,2.1,2.1v0.3C42.9,75.4,41.9,76.4,40.7,76.4
		C40.7,76.4,40.7,76.4,40.7,76.4z M30.2,57c-6.5,0-11.7-5.3-11.7-11.8c0-6.4,5.2-11.6,11.7-11.7c0.8,0,1.5,0.1,2.3,0.2
		c0,0,0.1,0,0.1,0c6.4,1.3,10.4,7.5,9.1,13.9C40.5,53.1,35.7,57,30.2,57L30.2,57z M26.3,38.8c-3.6,2.1-4.8,6.7-2.7,10.3
		s6.7,4.8,10.3,2.7s4.8-6.7,2.7-10.3c-0.8-1.4-2.1-2.5-3.6-3.1c-1,1.3-2.2,2.4-3.6,3.2c-1,0.6-2.3,0.2-2.9-0.8
		C26.1,40.1,26.1,39.4,26.3,38.8L26.3,38.8z M83.7,42.7h-11c-1.2,0-2.1-1-2.1-2.1c0-1.2,1-2.1,2.1-2.1h11c1.2,0,2.1,1,2.1,2.1
		C85.9,41.7,84.9,42.7,83.7,42.7C83.7,42.7,83.7,42.7,83.7,42.7L83.7,42.7z M62.9,42.7h-4.1c-1.2,0-2.1-1-2.1-2.1
		c0-1.2,1-2.1,2.1-2.1h4.1c1.2,0,2.1,1,2.1,2.1C65,41.7,64,42.7,62.9,42.7L62.9,42.7z M83.7,33.8H61.8c-1.2,0-2.1-1-2.1-2.1
		c0-1.2,1-2.1,2.1-2.1h21.9c1.2,0,2.1,1,2.1,2.1C85.9,32.8,84.9,33.8,83.7,33.8C83.7,33.8,83.7,33.8,83.7,33.8z M61.8,11H39.9
		c-1.2,0-2.1-1-2.1-2.1c0-1.2,1-2.1,2.1-2.1h21.9c1.2,0,2.1,1,2.1,2.1C64,10,63,11,61.8,11z"/>
</g>
</svg>
