<?xml version="1.0" encoding="utf-8"?>
<!-- Generator: Adobe Illustrator 21.0.0, SVG Export Plug-In . SVG Version: 6.00 Build 0)  -->
<svg version="1.1" id="Layer_1" xmlns="http://www.w3.org/2000/svg" xmlns:xlink="http://www.w3.org/1999/xlink" x="0px" y="0px"
	 viewBox="0 0 100 100" style="enable-background:new 0 0 100 100;fill: #008269 ;" xml:space="preserve">
<g transform="translate(761 638)">
	<path d="M-752.2-603.7v3.4c0,1-0.5,1.4-1.2,1.4c-0.7,0-1.1-0.5-1.2-1.4v-4.2c0-1.2,0.4-1.5,1.4-1.5h5c0.7,0,1.3,0.3,1.3,1.2
		c0.1,0.6-0.3,1.2-0.9,1.3c-0.1,0-0.2,0-0.3,0L-752.2-603.7z"/>
	<path d="M-752.2-566.5h4c0.7,0,1.4,0.3,1.4,1.2s-0.5,1.3-1.4,1.3h-4.9c-1,0-1.4-0.5-1.4-1.5v-4.3c0-1,0.5-1.4,1.2-1.4
		c0.9,0,1.2,0.7,1.2,1.4C-752.2-568.7-752.2-567.7-752.2-566.5z"/>
	<path d="M-669.5-559.7h-89v-50.1c0.3-0.6,0.9-0.9,1.5-0.8c0.5,0,1,0,1.5,0h84.6c1.6,0,2,0.3,2,2v46.8
		C-668.7-561-669-560.2-669.5-559.7z M-756.2-608v44.8c0,0.9,0.2,1.2,1.1,1.2h33.9c0-1.4-0.1-2.8,0-4c0.1-0.7-0.2-1.4-0.9-1.7
		c-7.2-4.3-11-12.6-9.4-20.8c0.9-5.8,4.5-10.8,9.5-13.7c0.3-0.2,0.7-0.5,0.7-0.8c0.1-1.6,0-3.3,0-4.9H-756.2z M-671.2-608h-35
		c0,1.3,0.1,2.7,0,4c-0.1,0.7,0.3,1.4,0.9,1.6c7.3,4.2,11.1,12.5,9.5,20.7c-0.9,5.9-4.4,11-9.6,14c-0.3,0.2-0.8,0.5-0.8,0.7
		c-0.1,1.6,0,3.3,0,4.9h35L-671.2-608z M-719-607.9v45.7h10.4v-45.7H-719z M-706.2-600v30c5.3-3.1,8.6-8.9,8.5-15
		C-697.7-591.4-701.6-598.2-706.2-600z M-721.4-570V-600c-5.3,3.1-8.5,8.9-8.3,15C-729.7-578.9-726.6-573.2-721.4-570z"/>
	<path d="M-663.5-567.8c-0.4,0.7-0.9,1.1-1.6,0.8c-0.7-0.3-0.7-1-0.7-1.6V-614h-84.3c-0.6,0-1-0.5-1-1.1c0,0,0,0,0,0
		c0-0.7,0.3-1.2,1-1.2h84.6c0.7,0,1.4,0,1.9,0.9C-663.5-599.7-663.5-583.7-663.5-567.8z"/>
	<path d="M-744.5-579.9c-2.7-0.1-4.9-2.4-4.9-5.1c-0.1-2.7,2-5,4.8-5.2c2.8,0.2,5,2.6,4.9,5.5C-739.9-582.2-742-580.1-744.5-579.9
		L-744.5-579.9z M-744.5-587.8c-1.4,0-2.5,1.1-2.5,2.5c0,0,0,0.1,0,0.1c-0.1,1.5,1,2.7,2.5,2.8c0,0,0,0,0,0c1.4,0,2.5-1.2,2.5-2.6
		c0,0,0-0.1,0-0.1C-742-586.5-743.1-587.7-744.5-587.8L-744.5-587.8z"/>
	<path d="M-682.9-590.2c2.7,0.1,4.9,2.4,5,5.1c0,2.7-2.1,4.9-4.8,5.1c-2.8-0.2-5-2.6-4.8-5.4C-687.5-587.9-685.5-590-682.9-590.2
		L-682.9-590.2z M-680.3-585.1c0.1-1.4-0.9-2.6-2.3-2.7c-1.4-0.1-2.6,0.9-2.7,2.3c0,0.1,0,0.3,0,0.4c-0.1,1.4,1,2.6,2.4,2.7
		c0,0,0,0,0.1,0c1.4,0,2.5-1.1,2.5-2.5C-680.3-585-680.3-585-680.3-585.1z"/>
	<path d="M-675.2-603.7h-4c-1,0-1.4-0.4-1.4-1.3c0-0.9,0.5-1.3,1.4-1.3h4.8c1.1,0,1.4,0.4,1.4,1.5v4.3c0,1-0.5,1.4-1.2,1.3
		c-0.8,0-1.1-0.6-1.1-1.3L-675.2-603.7z"/>
	<path d="M-675.2-566.5v-3.4c0-1,0.5-1.4,1.2-1.4c0.8,0,1.1,0.6,1.1,1.3v4.4c0,1-0.5,1.4-1.4,1.4h-5c-0.6,0.1-1.2-0.4-1.3-1
		c0-0.1,0-0.2,0-0.2c-0.1-0.6,0.3-1.2,0.9-1.3c0.1,0,0.2,0,0.3,0C-678-566.5-676.6-566.5-675.2-566.5z"/>
</g>
</svg>
