<?xml version="1.0" encoding="utf-8"?>
<!-- Generator: Adobe Illustrator 21.0.0, SVG Export Plug-In . SVG Version: 6.00 Build 0)  -->
<svg version="1.1" id="Layer_1" xmlns="http://www.w3.org/2000/svg" xmlns:xlink="http://www.w3.org/1999/xlink" x="0px" y="0px"
	 viewBox="0 0 100 100" style="enable-background:new 0 0 100 100;fill: #008269 ;" xml:space="preserve">
<g transform="translate(-281 236)">
	<path d="M283.5-151.2v-2.1c0.1-0.1,0.2,0,0.4,0h4.2v-27.7c-0.1,0-0.2-0.1-0.3-0.1c-0.2-0.1-0.4-0.1-0.5-0.2
		c-1.1-0.4-1.8-1.5-1.8-2.6c-0.1-0.7,0.1-1.4,0.3-2.1c0.2-0.9,0.6-1.8,1.1-2.6c0.7-1.4,1.4-2.7,2.3-3.9c0.5-0.8,1.2-1.7,1.7-2.4
		c0-0.1,0.1-0.1,0.2-0.2c0.2-0.1,0.2-0.3,0.3-0.6l0.3-1.6c-0.1-0.1-0.1-0.2,0-0.2c0.1-0.1,0.2-0.1,0.2,0c0.1,0.1,0.1,0.2,0,0.2
		c0,0,0,0,0,0c0.2,0.5,0.3,1.2,0.5,1.7c0.1,0.2,0.2,0.4,0.3,0.5l0.1,0.1c1.3,1.7,2.4,3.5,3.5,5.4c0.6,1,1,2,1.4,3.1
		c0.2,0.7,0.4,1.5,0.4,2.2c0,0.4,0,0.9-0.1,1.3c-0.3,1-1.1,1.8-2.1,2c-0.1,0-0.2,0.1-0.4,0.1v27.5h11.7c0-0.1-0.1-0.2-0.1-0.3
		c-0.8-1.1-1.6-2.3-2.3-3.5c-1.4-2.3-2.5-4.7-3.3-7.2c-0.4-1.4-0.7-2.9-0.9-4.3c-0.1-0.7-0.1-1.6-0.2-2.3c0-1,0.1-2.1,0.5-3.1
		c0.4-1.1,0.9-2.2,1.5-3.3c0.9-1.6,1.9-3,3.1-4.3c1.6-2,3.3-3.8,5-5.6c2.6-2.7,5.5-5.4,8.3-8c3.1-2.8,6.2-5.5,9.5-8.2
		c0.4-0.4,0.9-0.7,1.3-1.2c0.2-0.1,0.3-0.3,0.5-0.4c0.1-0.1,0.1-0.2,0.1-0.3v-3.4c-0.1,0-0.1-0.1-0.2-0.1c-2.6-0.6-4.6-2.8-5.1-5.5
		c-0.1-0.6-0.1-1.3,0-1.9c0-0.1,0-0.1,0.1-0.2c0.1,0.1,0.1,0.3,0.1,0.4c0.8,2.9,3.6,4.9,6.7,4.6c2.6-0.2,4.9-2,5.6-4.5
		c0-0.1,0.1-0.2,0.1-0.3c0.7,3.5-1.6,6.9-5.1,7.6c0,0,0,0,0,0v3.3c0,0.1,0,0.2,0.1,0.3l0.6,0.6c1.8,1.6,3.6,3.1,5.4,4.6
		c3.5,3,6.9,6,10.1,9.2c2.5,2.3,4.8,4.8,7,7.4c1.4,1.6,2.7,3.3,3.8,5.2c0.7,1.1,1.3,2.3,1.8,3.5c0.3,0.8,0.5,1.7,0.6,2.6
		c0.1,0.6,0.1,1.1,0,1.7c-0.1,1.7-0.3,3.3-0.7,5c-0.5,1.9-1.3,3.8-2.1,5.6c-1,2.2-2.4,4.3-3.9,6.1c-0.1,0.1-0.1,0.1-0.1,0.3h11.7
		v-27.8c-0.1,0-0.2-0.1-0.3-0.1c-0.3-0.1-0.6-0.2-0.8-0.4c-0.7-0.4-1.2-1.2-1.4-2c-0.1-0.7,0-1.4,0.1-2.1c0.2-1,0.6-2,1.2-3
		c0.6-1.3,1.4-2.4,2.1-3.7c0.6-0.9,1.3-1.8,1.9-2.7c0-0.1,0-0.1,0.1-0.1c0,0,0,0,0,0c0.3-0.2,0.3-0.5,0.4-0.8
		c0.1-0.5,0.3-0.9,0.4-1.5c0-0.1,0.1-0.1,0.1-0.3c0,0.1,0.1,0.2,0.1,0.3c0.2,0.5,0.3,1.2,0.5,1.7c0.1,0.2,0.1,0.3,0.2,0.4
		c0.1,0,0.1,0.1,0.1,0.2c1.2,1.5,2.2,3.1,3.2,4.8c0.6,1,1,2,1.5,3.1c0.3,0.7,0.5,1.4,0.6,2.1c0.1,0.6,0.1,1.3,0,1.9
		c-0.2,1.1-1.1,1.9-2.1,2.2c-0.1,0-0.2,0.1-0.3,0.1v27.7c0.1,0.1,0.3,0,0.4,0.1h3.9v2.1h-94.3C284-151.2,283.8-151.2,283.5-151.2z
		 M310-153.7h41.6c0.6,0,0.4,0.1,0.9-0.4c1.8-2.1,3.3-4.5,4.4-7c1.5-3,2.4-6.3,2.5-9.7c0-0.6,0-1.2-0.2-1.8
		c-0.2-0.8-0.5-1.6-0.8-2.3c-0.6-1.3-1.4-2.5-2.2-3.6c-1.2-1.7-2.6-3.3-4-4.9c-2.1-2.3-4.3-4.5-6.5-6.8c-3.4-3.3-7-6.4-10.6-9.5
		c-1.3-1.2-2.6-2.2-3.9-3.4c-0.1,0-0.1,0-0.1-0.1c0,0,0,0,0,0c-0.1,0-0.1,0-0.1,0.1c0,0,0,0,0,0c-0.4,0.4-0.8,0.7-1.3,1.2
		c-3,2.5-5.8,5-8.7,7.6c-3.2,2.8-6.2,5.7-9.2,8.8c-1.8,1.8-3.5,3.7-5,5.8c-0.9,1.3-1.8,2.5-2.6,3.9c-0.5,0.8-0.9,1.7-1.2,2.6
		c-0.2,0.7-0.3,1.4-0.3,2.1c0,1.2,0.1,2.5,0.4,3.7c0.3,1.7,0.9,3.4,1.6,5.1c1.2,2.6,2.6,5.1,4.3,7.4
		C309.4-154.5,309.7-154.1,310-153.7L310-153.7z M370.3-192.7c-0.1,0-0.2,0.1-0.2,0.2c-0.7,1-1.4,2-2,3.1c-0.6,1-1,1.9-1.5,3
		c-0.2,0.5-0.3,1-0.4,1.6c-0.1,0.3-0.1,0.6,0,0.8c0.1,0.3,0.3,0.6,0.6,0.6h0.6c0.2,0,0.4-0.1,0.5-0.1c0.3,0,0.5-0.1,0.8-0.1v30.1
		h2.8v-0.1l0,0v-0.1l0,0v-29.6l0,0v-0.1h0.3c0.3,0,0.6,0.1,0.8,0.1c0.3,0,0.5,0,0.7-0.1c0.3-0.1,0.5-0.2,0.5-0.5v-0.6
		c0-0.4-0.1-0.7-0.2-1.1c-0.3-0.9-0.7-1.8-1.2-2.7C372.1-189.9,371.3-191.4,370.3-192.7C370.4-192.5,370.4-192.7,370.3-192.7z
		 M293.3-153.4v-30.1h0.2c0.2,0,0.5,0.1,0.7,0.1c0.3,0,0.6,0.1,0.9,0.1c0.6-0.1,0.8-0.3,0.8-0.9c0-0.4,0-0.7-0.1-1.1
		c-0.2-0.8-0.5-1.6-0.8-2.4c-0.9-1.8-1.9-3.4-3.1-5l-0.1-0.1c-0.1,0.1-0.1,0.1-0.1,0.2c-0.7,1.1-1.4,2-2,3.1
		c-0.5,0.9-1.1,1.9-1.5,2.8c-0.2,0.5-0.3,1-0.4,1.5c-0.1,0.4-0.1,0.8-0.1,1.2c0.1,0.3,0.2,0.5,0.5,0.6c0.2,0.1,0.5,0.1,0.7,0
		c0.3-0.1,0.6-0.1,0.9-0.2h0.3v30.1h2.6C293.2-153.4,293.2-153.4,293.3-153.4z"/>
	<path d="M334.3-218.6c-0.7,0.4-1.3,0.9-1.9,1.4c0.1,0.4,0.2,0.7,0.3,1.2c0.1,0.3,0.2,0.7,0.3,1.2c-0.4-0.2-0.7-0.4-1.1-0.6
		l-0.9-0.6c-0.1,0-0.2,0-0.2,0.1c-0.5,0.3-0.9,0.7-1.4,1.1c-0.1,0.1-0.2,0.1-0.3,0.2c0.2-0.8,0.5-1.6,0.7-2.3
		c-0.2-0.1-0.4-0.3-0.6-0.4c-0.2-0.1-0.4-0.3-0.6-0.4c-0.2-0.1-0.5-0.3-0.6-0.5c0.2-0.1,0.3,0,0.5,0h1.9c0-0.1,0.1-0.2,0.1-0.3
		c0.2-0.5,0.3-1.1,0.5-1.7c0-0.1,0.1-0.2,0.1-0.3c0.3,0.7,0.5,1.6,0.8,2.3h1.5C333.7-218.6,334-218.6,334.3-218.6L334.3-218.6z"/>
</g>
</svg>
