<?xml version="1.0" encoding="utf-8"?>
<!-- Generator: Adobe Illustrator 21.0.0, SVG Export Plug-In . SVG Version: 6.00 Build 0)  -->
<svg version="1.1" id="Layer_1" xmlns="http://www.w3.org/2000/svg" xmlns:xlink="http://www.w3.org/1999/xlink" x="0px" y="0px"
	 viewBox="0 0 100 100" style="enable-background:new 0 0 100 100;fill: #008269 ;" xml:space="preserve">
<g transform="translate(-418 86)">
	<path d="M434.8,2.5v-55.3c0.1-0.1,0.2-0.2,0.2-0.4c0.4-3.1,2.1-5.9,4.7-7.8c0.6-0.5,1.2-0.9,1.9-1.3c-0.2-0.2-0.5-0.4-0.7-0.6
		c-1.8-1.3-2.9-3.4-2.9-5.6c0-2.7-0.1-5.5,0-8.2c0.1-3,2.1-5.6,5-6.4c0.6-0.2,1.2-0.3,1.8-0.5h46.7c0.1,0.1,0.2,0.2,0.4,0.2
		c3.7,0.4,6.4,3.6,6.2,7.3v7.2c0,2.4-1.2,4.7-3.1,6.1c-0.2,0.1-0.3,0.3-0.4,0.3c1.4,1.3,2.8,2.5,4.1,3.8c1.4,1.6,2.2,3.6,2.5,5.8
		V2.6C501.1,2.8,501,3,501,3.3c-0.5,3.8-3.2,7-7,7.8c-1.3,0.3-2.6,0.4-3.9,0.4h-44c-0.7,0-1.4,0-2.1-0.1c-3.6-0.1-6.7-2.4-8-5.7
		C435.5,4.7,435.1,3.6,434.8,2.5z M498.8-25.2v-25.7c0.1-3.1-1.3-6-3.7-7.9c-1.9-1.7-4.4-2.6-7-2.6c-13.8,0.1-27.7,0-41.5,0.1
		c-0.4,0-0.8,0-1.2,0.1c-4.7,1.3-8,5.5-8,10.4V1.3c-0.2,3.4,1.9,6.6,5.2,7.6c1,0.3,2.1,0.4,3.1,0.4h44.8c0.8,0,1.5,0,2.3-0.2
		c3.7-0.6,6.3-3.9,6-7.7L498.8-25.2z M468-63.8h22.7c2.7,0.1,5-1.9,5.1-4.6c0-0.1,0-0.3,0-0.5v-7.1c0.1-2.6-2-4.8-4.7-4.9
		c-0.1,0-0.2,0-0.3,0h-45.4c-2.6-0.2-4.8,1.8-5,4.3c0,0.3,0,0.5,0,0.8c0,2.2,0.1,4.3,0,6.6c-0.2,2.8,2,5.2,4.8,5.4
		c0.2,0,0.4,0,0.6,0C453.1-63.9,460.5-63.8,468-63.8z"/>
	<path d="M453.6-1.5h-2.9c-1.8,0.1-3.4-1.3-3.5-3.1c0-0.1,0-0.2,0-0.4v-2c-0.2-1.8,1.1-3.5,2.9-3.7c0.2,0,0.5,0,0.7,0h17.2v-0.2
		c-2.4-0.6-4.6-1.1-7-1.7c-2.8-0.7-3.7-2.1-3.1-4.9c0.1-0.3,0.2-0.7,0.2-1c0.1-1.9,1.8-3.3,3.7-3.1c0.3,0,0.6,0.1,0.9,0.2
		c8.6,2.1,17.2,4.1,25.8,6.1c1.8,0.2,3.1,1.8,2.9,3.6c0,0.2-0.1,0.4-0.1,0.6c-0.1,0.6-0.3,1.2-0.4,1.8c-0.2,1.8-1.8,3-3.5,2.8
		c-0.2,0-0.5-0.1-0.7-0.2c-1.6-0.4-3.2-0.8-4.9-1.1c-0.2,0-0.3,0-0.5-0.1V-4h2.8c1.8-0.1,3.4,1.2,3.5,3c0,0.2,0,0.3,0,0.5V2
		c-0.1,1.7-1.5,3.1-3.2,3.1h-27.6c-1.8,0-3.2-1.5-3.2-3.3c0,0,0-0.1,0-0.1C453.5,0.7,453.6-0.3,453.6-1.5z M464.1-3.9H476
		c2.8,0,2.6,0,2.6-2.6c0-1.6-0.1-1.7-1.8-1.7h-24.6c-2.9,0-2.6,0-2.6,2.7c0,1.3,0.2,1.5,1.5,1.5H464.1z M470.4,2.7h12
		c2.8,0,2.6,0.4,2.6-2.6c0-1.4-0.1-1.5-1.5-1.5h-24.8c-3.1,0-2.7-0.4-2.7,2.8c0,1.2,0.1,1.3,1.4,1.3L470.4,2.7z M462.1-18.9
		c-0.9,0-1.3,0.2-1.4,0.9c-0.1,0.4-0.2,0.7-0.2,1.1c-0.4,1.7-0.3,1.7,1.3,2.2c7.9,1.8,15.9,3.7,23.8,5.5c2.7,0.7,2.6,1.1,3.3-2.2
		c0.2-0.9-0.1-1.2-0.9-1.5c-6.4-1.4-12.9-2.9-19.2-4.4C466.5-17.9,464.2-18.4,462.1-18.9L462.1-18.9z"/>
	<path d="M489.7-41.9c-0.5,1.3-1.1,2.6-1.7,3.9c-0.9,1.2-2.5,1.6-3.9,0.9c-3.9-1.4-7.8-2.9-11.5-4.4c-4.4-1.7-8.9-3.4-13.4-5.1
		c-1.8-0.4-2.9-2.2-2.5-4c0.1-0.3,0.2-0.5,0.3-0.8c0.3-0.7,0.5-1.3,0.8-2c0.6-1.7,2.6-2.6,4.3-1.9c0,0,0.1,0,0.1,0
		c8.4,3.2,16.8,6.5,25.2,9.8C488.9-45,489.9-43.5,489.7-41.9z M487.3-42.7c-0.3-0.2-0.5-0.7-0.9-0.8c-8.3-3.2-16.6-6.4-25-9.5
		c-0.5-0.3-1.1-0.1-1.4,0.3c-0.1,0.1-0.1,0.2-0.1,0.3c-1.1,2.9-1.4,2.6,1.7,3.8c7.8,2.9,15.6,6,23.4,8.9c0.6,0.2,1.1,0.3,1.4-0.4
		C486.7-40.8,486.9-41.6,487.3-42.7z"/>
	<path d="M447.6-26.2c-1.9,0.2-3.6-1.2-3.8-3.1c0,0,0,0,0-0.1c-0.1-0.7-0.2-1.2-0.3-1.9c-0.4-1.8,0.7-3.5,2.5-3.9
		c0.2,0,0.4-0.1,0.6-0.1c6.4-0.9,12.9-1.7,19.4-2.6c2.4-0.3,4.6-0.7,7-0.9c1.8-0.5,3.7,0.6,4.2,2.4c0.1,0.2,0.1,0.4,0.1,0.6
		c0.2,0.8,0.3,1.6,0.3,2.5c0.2,1.8-1.1,3.3-2.9,3.5c0,0,0,0-0.1,0c-4.2,0.6-8.4,1.1-12.6,1.7c-4.5,0.6-9,1.2-13.5,1.8
		C448.2-26.3,447.9-26.3,447.6-26.2z M447.1-28.5c0.1-0.1,0.2-0.1,0.2-0.2h0.4c8.7-1.1,17.5-2.4,26.2-3.5c0.9-0.1,1.3-0.6,1-1.5
		c-0.1-0.6-0.2-1.1-0.3-1.7c-0.1-0.9-0.5-1.1-1.4-1c-3.3,0.5-6.6,0.9-9.9,1.3c-4.8,0.7-9.8,1.3-14.7,2c-3.2,0.4-2.8,0.1-2.4,3.3v0.2
		C446.5-29.3,446.8-28.9,447.1-28.5L447.1-28.5z"/>
	<path d="M451.6-72.1v4.5c0,0.9-0.3,1.3-1.1,1.4c-0.7,0-1.3-0.6-1.3-1.3c0,0,0-0.1,0-0.1v-9.3c-0.1-0.7,0.4-1.2,1.1-1.3
		c0.1,0,0.2,0,0.3,0c0.9,0,1.1,0.6,1.1,1.4C451.5-75.2,451.6-73.7,451.6-72.1z"/>
	<path d="M454.2-72.2v-4.5c0-0.8,0.3-1.3,1.1-1.4c0.6-0.1,1.2,0.3,1.3,1c0,0.1,0,0.2,0,0.4v9.3c0.1,0.6-0.4,1.2-1,1.3
		c-0.1,0-0.2,0-0.2,0c-0.9,0-1.2-0.6-1.2-1.4C454.2-69.1,454.2-70.6,454.2-72.2z"/>
	<path d="M464.2-72.2v-4.5c0-0.9,0.3-1.4,1.2-1.4c0.9,0,1.2,0.5,1.2,1.5v8.9c0,1-0.5,1.5-1.2,1.5s-1.2-0.6-1.2-1.6V-72.2z"/>
	<path d="M476.8-72.2v4.6c0,0.9-0.4,1.3-1.2,1.3c-0.6,0-1.2-0.5-1.2-1.1c0-0.1,0-0.1,0-0.2v-9.4c-0.1-0.6,0.4-1.2,1-1.3
		c0.1,0,0.2,0,0.2,0c0.9,0,1.2,0.5,1.2,1.3V-72.2z"/>
	<path d="M479.4-72.2v-4.6c0-0.9,0.3-1.3,1.2-1.3c0.6-0.1,1.2,0.3,1.2,0.9c0,0.1,0,0.2,0,0.3v9.4c0.1,0.7-0.4,1.3-1.1,1.3
		c0,0-0.1,0-0.1,0c-0.6,0-1.2-0.5-1.2-1.1c0-0.1,0-0.1,0-0.2V-72.2z"/>
	<path d="M489.6-72.3v-4.4c0-0.9,0.3-1.4,1.2-1.4s1.2,0.6,1.2,1.4v9c0,0.9-0.3,1.4-1.2,1.5c-0.8,0.1-1.2-0.5-1.2-1.5
		C489.5-69.2,489.6-70.7,489.6-72.3z"/>
	<path d="M486.9-72.2v4.5c0,0.9-0.3,1.4-1.2,1.4c-0.9,0-1.2-0.6-1.2-1.4v-9c0-1,0.5-1.5,1.3-1.5c0.9,0,1.1,0.7,1.1,1.4
		C486.9-75.1,486.9-73.7,486.9-72.2z"/>
	<path d="M446.5-72.1v4.3c0,1-0.5,1.7-1.2,1.6c-0.9-0.1-1.2-0.8-1.1-1.6v-8.8c0-0.9,0.2-1.5,1.2-1.5s1.2,0.7,1.2,1.5
		C446.5-75.1,446.5-73.6,446.5-72.1z"/>
	<path d="M469.3-72.2v-4.5c0-0.8,0.2-1.3,1.1-1.4c0.6-0.1,1.2,0.3,1.3,1c0,0.1,0,0.2,0,0.4v9.3c0.1,0.7-0.4,1.3-1.1,1.4
		c-0.1,0-0.1,0-0.2,0c-0.9,0-1.1-0.6-1.1-1.4V-72.2z"/>
	<path d="M461.6-72.2v4.5c0,0.9-0.3,1.4-1.1,1.5c-0.7,0-1.3-0.5-1.3-1.2c0-0.1,0-0.1,0-0.2v-9.2c-0.1-0.6,0.4-1.2,1-1.3
		c0.1,0,0.2,0,0.2,0c0.9,0,1.2,0.5,1.2,1.3C461.6-75.3,461.6-73.7,461.6-72.2z"/>
</g>
</svg>
